<svg xmlns="http://www.w3.org/2000/svg" width="18.647" height="16.122" viewBox="0 0 18.647 16.122">
  <g id="Group_25" data-name="Group 25" transform="translate(-11 -109.878)">
    <rect id="Rectangle_15" data-name="Rectangle 15" width="12" height="12" transform="translate(11 112)" fill="#ecc750"/>
    <path id="Path_7" data-name="Path 7" d="M9.346,16.994h4.382V11.479a.544.544,0,0,0-.583-.583H9.938a.589.589,0,0,0-.43.158.566.566,0,0,0-.162.425Zm-2.975.891H16.66a1.786,1.786,0,0,0,1.307-.459,1.718,1.718,0,0,0,.467-1.284V7.73L17.07,6.8v8.957a.766.766,0,0,1-.191.56.733.733,0,0,1-.548.195H6.7a.733.733,0,0,1-.548-.195.766.766,0,0,1-.191-.56V6.8L4.6,7.73v8.412a1.718,1.718,0,0,0,.467,1.284A1.786,1.786,0,0,0,6.371,17.885ZM2.354,9.356a.661.661,0,0,0,.2.47.7.7,0,0,0,.53.2.645.645,0,0,0,.315-.08,1.6,1.6,0,0,0,.27-.186L11.251,3.4a.426.426,0,0,1,.294-.125.455.455,0,0,1,.3.125l7.571,6.362a1.893,1.893,0,0,0,.277.186.647.647,0,0,0,.316.08.752.752,0,0,0,.5-.175.594.594,0,0,0,.206-.478.726.726,0,0,0-.263-.577L12.542,2.153a1.483,1.483,0,0,0-.989-.39,1.54,1.54,0,0,0-1,.39L2.631,8.8A.69.69,0,0,0,2.354,9.356Zm14.04-3.567,2.041,1.72v-3.6a.519.519,0,0,0-.554-.553h-.925a.559.559,0,0,0-.408.151.537.537,0,0,0-.155.4Z" transform="translate(8.926 108.115)"/>
  </g>
</svg>
