<svg xmlns="http://www.w3.org/2000/svg" width="15.326" height="15.175" viewBox="0 0 15.326 15.175">
  <g id="Group_31" data-name="Group 31" transform="translate(-12.337 -204.825)">
    <rect id="Rectangle_17" data-name="Rectangle 17" width="12" height="12" transform="translate(14 208)" fill="#ecc750"/>
    <path id="Path_6" data-name="Path 6" d="M4.652,14.355H6.52V13.077H4.7a1.065,1.065,0,0,1-.786-.272,1.109,1.109,0,0,1-.272-.817V4.912A1.1,1.1,0,0,1,3.919,4.1,1.065,1.065,0,0,1,4.7,3.83h7.107A1.081,1.081,0,0,1,12.6,4.1a1.08,1.08,0,0,1,.28.809V6.469h1.285V4.821a2.289,2.289,0,0,0-.582-1.7,2.335,2.335,0,0,0-1.709-.575H4.652a2.353,2.353,0,0,0-1.72.571,2.3,2.3,0,0,0-.578,1.705v7.266a2.285,2.285,0,0,0,.578,1.7A2.353,2.353,0,0,0,4.652,14.355ZM8.175,17.72h7.206a2.344,2.344,0,0,0,1.72-.575,2.3,2.3,0,0,0,.578-1.7V8.178a2.285,2.285,0,0,0-.578-1.7,2.353,2.353,0,0,0-1.72-.571H8.175a2.374,2.374,0,0,0-1.728.567,2.283,2.283,0,0,0-.578,1.7v7.266a2.3,2.3,0,0,0,.578,1.7A2.355,2.355,0,0,0,8.175,17.72Zm.045-1.285a1.069,1.069,0,0,1-.79-.276,1.091,1.091,0,0,1-.276-.805V8.269a1.089,1.089,0,0,1,.276-.809,1.078,1.078,0,0,1,.79-.272h7.107a.961.961,0,0,1,1.066,1.081v7.085a1.091,1.091,0,0,1-.276.805,1.069,1.069,0,0,1-.79.276Zm2-1.6,1.8-1.323,1.807,1.323a.391.391,0,0,0,.628-.454l-.718-2.125,1.83-1.308a.446.446,0,0,0,.193-.3.383.383,0,0,0-.083-.314.422.422,0,0,0-.344-.132l-2.246.023L12.4,8.087a.382.382,0,0,0-.756,0l-.688,2.14L8.72,10.2a.433.433,0,0,0-.348.132.371.371,0,0,0-.087.31.463.463,0,0,0,.2.306l1.822,1.308L9.6,14.385a.436.436,0,0,0,0,.378.356.356,0,0,0,.257.181A.493.493,0,0,0,10.224,14.839Z" transform="translate(9.983 202.28)"/>
  </g>
</svg>
