<svg id="Component_19_6" data-name="Component 19 – 6" xmlns="http://www.w3.org/2000/svg" width="18" height="26.045" viewBox="0 0 18 26.045">
  <rect id="Rectangle_18" data-name="Rectangle 18" width="18" height="18" transform="translate(0 4)" fill="#c96340"/>
  <path id="Path_8" data-name="Path 8" d="M2.354,8.113a8.79,8.79,0,0,0,.261,2.25,13.693,13.693,0,0,0,.671,1.928q.411.948.856,2.078a21.878,21.878,0,0,1,.831,2.667,25.148,25.148,0,0,1,.589,3.725.9.9,0,0,0,.24.554.761.761,0,0,0,.564.2H13.3a.775.775,0,0,0,.575-.2.851.851,0,0,0,.229-.554,25.146,25.146,0,0,1,.59-3.724,21.27,21.27,0,0,1,.836-2.667q.45-1.131.856-2.078a14.158,14.158,0,0,0,.666-1.928,8.773,8.773,0,0,0,.261-2.25A6.436,6.436,0,0,0,16.739,5.4a6.782,6.782,0,0,0-1.6-2.193,7.545,7.545,0,0,0-2.382-1.469,7.975,7.975,0,0,0-2.926-.53,7.943,7.943,0,0,0-2.914.53A7.609,7.609,0,0,0,4.531,3.206,6.743,6.743,0,0,0,2.928,5.4,6.436,6.436,0,0,0,2.354,8.113Zm1.816,0a4.616,4.616,0,0,1,.45-2.04,5.019,5.019,0,0,1,1.231-1.61A5.749,5.749,0,0,1,7.66,3.4a6.427,6.427,0,0,1,4.351,0,5.846,5.846,0,0,1,1.809,1.06,4.985,4.985,0,0,1,1.237,1.61,4.612,4.612,0,0,1,.451,2.04,5.7,5.7,0,0,1-.224,1.661,13.609,13.609,0,0,1-.575,1.532q-.351.8-.766,1.866a22.985,22.985,0,0,0-.81,2.644,32.881,32.881,0,0,0-.683,3.89H7.226a34.151,34.151,0,0,0-.694-3.89,23.9,23.9,0,0,0-.8-2.644Q5.32,12.1,4.963,11.3a12.362,12.362,0,0,1-.575-1.532A5.83,5.83,0,0,1,4.169,8.113ZM6.305,24h7.066a.677.677,0,1,0,0-1.355H6.305a.649.649,0,0,0-.487.2.693.693,0,0,0,0,.958A.648.648,0,0,0,6.305,24Zm3.527,3.25a4.178,4.178,0,0,0,2.244-.583A1.97,1.97,0,0,0,13.1,25.131H6.567A1.909,1.909,0,0,0,7.58,26.669,4.22,4.22,0,0,0,9.833,27.252Z" transform="translate(0.468 -1.207)"/>
</svg>
