<svg xmlns="http://www.w3.org/2000/svg" width="20.721" height="17.812" viewBox="0 0 20.721 17.812">
  <g id="Group_12" data-name="Group 12" transform="translate(-11.279 -158.188)">
    <rect id="Rectangle_16" data-name="Rectangle 16" width="12" height="12" transform="translate(20 164)" fill="#c96340"/>
    <path id="Path_5" data-name="Path 5" d="M15.289,18.807h3.4a1.578,1.578,0,0,0,1.163-.4,1.961,1.961,0,0,0,.477-1.233l.768-7.984a.714.714,0,0,0-.154-.57.675.675,0,0,0-.534-.214H13.562a.661.661,0,0,0-.527.218.713.713,0,0,0-.154.566l.768,7.984a1.96,1.96,0,0,0,.477,1.233A1.578,1.578,0,0,0,15.289,18.807Zm.057-1.253a.418.418,0,0,1-.452-.431l-.711-7.459h5.609l-.711,7.459a.413.413,0,0,1-.452.431Zm1.132-8.736h1.106l.05-.727a1.08,1.08,0,0,1,.1-.442.941.941,0,0,1,.284-.312L20.5,5.565a.532.532,0,0,0,.237-.383.57.57,0,0,0-.114-.393.583.583,0,0,0-.345-.228.553.553,0,0,0-.457.125L17.437,6.4a2.067,2.067,0,0,0-.641.686,2.364,2.364,0,0,0-.252.931ZM4.655,17.537h7.991q-.012-.066-.018-.126t-.015-.129l-.092-1.037H4.707a.939.939,0,0,1-1.054-1.069v-7.6a1.832,1.832,0,0,1,.02-.308.544.544,0,0,1,.1-.221L5.207,5.152a.7.7,0,0,0,.124-.229.943.943,0,0,0,.032-.264V3.388q0-.613.57-.613H12q.571,0,.571.613V4.66a.953.953,0,0,0,.032.264.764.764,0,0,0,.117.229l1.4,1.84a.612.612,0,0,1,.123.164.748.748,0,0,1,.054.2h1.273a1.854,1.854,0,0,0-.076-.514,1.552,1.552,0,0,0-.227-.413L13.842,4.537V3.2a1.66,1.66,0,0,0-.467-1.266,1.857,1.857,0,0,0-1.327-.442H5.885a1.855,1.855,0,0,0-1.332.442A1.667,1.667,0,0,0,4.09,3.2V4.537L2.668,6.431a1.524,1.524,0,0,0-.248.47,2.291,2.291,0,0,0-.067.624v7.74a2.287,2.287,0,0,0,.58,1.7A2.363,2.363,0,0,0,4.655,17.537ZM6.986,4.869h3.943a.492.492,0,0,0,.34-.843.467.467,0,0,0-.34-.148H6.986a.464.464,0,0,0-.344.148.5.5,0,0,0,0,.7A.469.469,0,0,0,6.986,4.869Z" transform="translate(8.926 156.693)"/>
  </g>
</svg>
