<svg id="Component_20_7" data-name="Component 20 – 7" xmlns="http://www.w3.org/2000/svg" width="22.54" height="18.269" viewBox="0 0 22.54 18.269">
  <rect id="Rectangle_19" data-name="Rectangle 19" width="17" height="17.731" transform="translate(0 0)" fill="#ecc750"/>
  <path id="storefront_FILL0_wght400_GRAD0_opsz48" d="M23.87,14.145v8.6a1.438,1.438,0,0,1-.472,1.066,1.533,1.533,0,0,1-1.1.457H6.546a1.533,1.533,0,0,1-1.1-.457,1.438,1.438,0,0,1-.472-1.066v-8.6a2.863,2.863,0,0,1-.97-1.5,3.078,3.078,0,0,1,.052-1.776L5.183,7.446A1.968,1.968,0,0,1,7.122,6H21.616a2.151,2.151,0,0,1,1.284.393,2.005,2.005,0,0,1,.76,1.053l1.153,3.425a3,3,0,0,1,.039,1.776A2.941,2.941,0,0,1,23.87,14.145Zm-7.076-.787a1.827,1.827,0,0,0,1.284-.482,1.247,1.247,0,0,0,.419-1.167l-.655-4.187H15.221v4.187a1.671,1.671,0,0,0,.446,1.154A1.451,1.451,0,0,0,16.793,13.358Zm-4.9,0a1.747,1.747,0,0,0,1.245-.482,1.546,1.546,0,0,0,.511-1.167V7.522H11.028l-.655,4.187a1.3,1.3,0,0,0,.367,1.154A1.532,1.532,0,0,0,11.892,13.358Zm-4.77,0A1.559,1.559,0,0,0,8.21,12.94a1.635,1.635,0,0,0,.537-1.028l.681-4.39H6.808L5.6,11.227a1.556,1.556,0,0,0,.21,1.459A1.512,1.512,0,0,0,7.122,13.358Zm14.6,0a1.609,1.609,0,0,0,1.546-2.131l-1.206-3.7H19.441l.681,4.39a1.635,1.635,0,0,0,.537,1.028A1.527,1.527,0,0,0,21.721,13.358ZM6.546,22.746H22.3V14.855q.026.025-.17.025h-.406a2.989,2.989,0,0,1-1.245-.266,4.168,4.168,0,0,1-1.166-.825,2.946,2.946,0,0,1-1.048.8,3.261,3.261,0,0,1-1.389.292,3.779,3.779,0,0,1-1.35-.216,3.247,3.247,0,0,1-1.088-.723,2.526,2.526,0,0,1-1,.7,3.645,3.645,0,0,1-1.363.241,3.522,3.522,0,0,1-1.441-.279A2.936,2.936,0,0,1,9.56,13.79a5.521,5.521,0,0,1-1.232.812,2.848,2.848,0,0,1-1.206.279H6.769a.615.615,0,0,1-.223-.025Zm15.751,0h0Z" transform="translate(-2.428 -6)"/>
</svg>
